<svg part="svg" xmlns="http://www.w3.org/2000/svg" aria-hidden="true" aria-labelledby="ic-commercial1" focusable="false" viewBox="0 0 24 24" class="h-icon icon-static-view-box header__icon" width="32" height="32"><!----><g><g><path d="M18.525 4.05C18.3 4.65 16.575 5.7 14.7 6.375L11.25 7.725V12V16.275L14.7 17.625C16.575 18.3 18.3 19.35 18.525 19.95C18.75 20.55 19.35 21 19.875 21C20.475 21 20.925 19.5 21.15 16.5C21.6 9.75 21 3 19.875 3C19.35 3 18.75 3.45 18.525 4.05Z"></path><path d="M3.3 9.3C3.075 9.9 3 11.475 3.15 12.9C3.3 14.775 3.75 15.45 5.1 15.6C6.45 15.825 6.75 16.35 6.75 18.45C6.75 20.25 7.125 21 7.875 21C8.775 21 9 19.8 9 14.625V8.25H6.375C4.8 8.25 3.525 8.7 3.3 9.3Z"></path></g></g></svg>