<svg width="32" height="20" viewBox="0 0 32 20" fill="none" xmlns="http://www.w3.org/2000/svg">
<g clip-path="url(#clip0_18230_194153)">
<path d="M38 0H0V20H38V0Z" fill="#B22234"/>
<path d="M0 2.30768H38H0ZM38 5.3846H0H38ZM0 8.46152H38H0ZM38 11.5384H0H38ZM0 14.6154H38H0ZM38 17.6923H0H38Z" fill="black"/>
<path d="M0 2.30768H38M38 5.3846H0M0 8.46152H38M38 11.5384H0M0 14.6154H38M38 17.6923H0" stroke="white" stroke-width="1.53846"/>
<path d="M15.2 0H0V10.7692H15.2V0Z" fill="#3C3B6E"/>
<path d="M1.26666 0.461548L1.62838 1.57479L0.681396 0.886768H1.85193L0.904948 1.57479L1.26666 0.461548Z" fill="white"/>
<path d="M1.26666 2.61539L1.62838 3.72864L0.681396 3.04061H1.85193L0.904948 3.72864L1.26666 2.61539Z" fill="white"/>
<path d="M1.26666 4.76924L1.62838 5.88248L0.681396 5.19446H1.85193L0.904948 5.88248L1.26666 4.76924Z" fill="white"/>
<path d="M1.26666 6.92309L1.62838 8.03633L0.681396 7.34831H1.85193L0.904948 8.03633L1.26666 6.92309Z" fill="white"/>
<path d="M1.26666 9.07693L1.62838 10.1902L0.681396 9.50215H1.85193L0.904948 10.1902L1.26666 9.07693Z" fill="white"/>
<path d="M2.53333 1.53847L2.89505 2.65171L1.94807 1.96369H3.1186L2.17162 2.65171L2.53333 1.53847Z" fill="white"/>
<path d="M2.53333 3.69232L2.89505 4.80556L1.94807 4.11754H3.1186L2.17162 4.80556L2.53333 3.69232Z" fill="white"/>
<path d="M2.53333 5.84616L2.89505 6.9594L1.94807 6.27138H3.1186L2.17162 6.9594L2.53333 5.84616Z" fill="white"/>
<path d="M2.53333 8.00001L2.89505 9.11325L1.94807 8.42523H3.1186L2.17162 9.11325L2.53333 8.00001Z" fill="white"/>
<path d="M3.79999 0.461548L4.16171 1.57479L3.21473 0.886768H4.38526L3.43828 1.57479L3.79999 0.461548Z" fill="white"/>
<path d="M3.79999 2.61539L4.16171 3.72864L3.21473 3.04061H4.38526L3.43828 3.72864L3.79999 2.61539Z" fill="white"/>
<path d="M3.79999 4.76924L4.16171 5.88248L3.21473 5.19446H4.38526L3.43828 5.88248L3.79999 4.76924Z" fill="white"/>
<path d="M3.79999 6.92309L4.16171 8.03633L3.21473 7.34831H4.38526L3.43828 8.03633L3.79999 6.92309Z" fill="white"/>
<path d="M3.79999 9.07693L4.16171 10.1902L3.21473 9.50215H4.38526L3.43828 10.1902L3.79999 9.07693Z" fill="white"/>
<path d="M5.06666 1.53847L5.42838 2.65171L4.4814 1.96369H5.65193L4.70495 2.65171L5.06666 1.53847Z" fill="white"/>
<path d="M5.06666 3.69232L5.42838 4.80556L4.4814 4.11754H5.65193L4.70495 4.80556L5.06666 3.69232Z" fill="white"/>
<path d="M5.06666 5.84616L5.42838 6.9594L4.4814 6.27138H5.65193L4.70495 6.9594L5.06666 5.84616Z" fill="white"/>
<path d="M5.06666 8.00001L5.42838 9.11325L4.4814 8.42523H5.65193L4.70495 9.11325L5.06666 8.00001Z" fill="white"/>
<path d="M6.33333 0.461548L6.69505 1.57479L5.74807 0.886768H6.9186L5.97162 1.57479L6.33333 0.461548Z" fill="white"/>
<path d="M6.33333 2.61539L6.69505 3.72864L5.74807 3.04061H6.9186L5.97162 3.72864L6.33333 2.61539Z" fill="white"/>
<path d="M6.33333 4.76924L6.69505 5.88248L5.74807 5.19446H6.9186L5.97162 5.88248L6.33333 4.76924Z" fill="white"/>
<path d="M6.33333 6.92309L6.69505 8.03633L5.74807 7.34831H6.9186L5.97162 8.03633L6.33333 6.92309Z" fill="white"/>
<path d="M6.33333 9.07693L6.69505 10.1902L5.74807 9.50215H6.9186L5.97162 10.1902L6.33333 9.07693Z" fill="white"/>
<path d="M7.59999 1.53847L7.96171 2.65171L7.01473 1.96369H8.18526L7.23828 2.65171L7.59999 1.53847Z" fill="white"/>
<path d="M7.59999 3.69232L7.96171 4.80556L7.01473 4.11754H8.18526L7.23828 4.80556L7.59999 3.69232Z" fill="white"/>
<path d="M7.59999 5.84616L7.96171 6.9594L7.01473 6.27138H8.18526L7.23828 6.9594L7.59999 5.84616Z" fill="white"/>
<path d="M7.59999 8.00001L7.96171 9.11325L7.01473 8.42523H8.18526L7.23828 9.11325L7.59999 8.00001Z" fill="white"/>
<path d="M8.86666 0.461548L9.22838 1.57479L8.2814 0.886768H9.45193L8.50495 1.57479L8.86666 0.461548Z" fill="white"/>
<path d="M8.86666 2.61539L9.22838 3.72864L8.2814 3.04061H9.45193L8.50495 3.72864L8.86666 2.61539Z" fill="white"/>
<path d="M8.86666 4.76924L9.22838 5.88248L8.2814 5.19446H9.45193L8.50495 5.88248L8.86666 4.76924Z" fill="white"/>
<path d="M8.86666 6.92309L9.22838 8.03633L8.2814 7.34831H9.45193L8.50495 8.03633L8.86666 6.92309Z" fill="white"/>
<path d="M8.86666 9.07693L9.22838 10.1902L8.2814 9.50215H9.45193L8.50495 10.1902L8.86666 9.07693Z" fill="white"/>
<path d="M10.1333 1.53847L10.495 2.65171L9.54807 1.96369H10.7186L9.77162 2.65171L10.1333 1.53847Z" fill="white"/>
<path d="M10.1333 3.69232L10.495 4.80556L9.54807 4.11754H10.7186L9.77162 4.80556L10.1333 3.69232Z" fill="white"/>
<path d="M10.1333 5.84616L10.495 6.9594L9.54807 6.27138H10.7186L9.77162 6.9594L10.1333 5.84616Z" fill="white"/>
<path d="M10.1333 8.00001L10.495 9.11325L9.54807 8.42523H10.7186L9.77162 9.11325L10.1333 8.00001Z" fill="white"/>
<path d="M11.4 0.461548L11.7617 1.57479L10.8147 0.886768H11.9853L11.0383 1.57479L11.4 0.461548Z" fill="white"/>
<path d="M11.4 2.61539L11.7617 3.72864L10.8147 3.04061H11.9853L11.0383 3.72864L11.4 2.61539Z" fill="white"/>
<path d="M11.4 4.76924L11.7617 5.88248L10.8147 5.19446H11.9853L11.0383 5.88248L11.4 4.76924Z" fill="white"/>
<path d="M11.4 6.92309L11.7617 8.03633L10.8147 7.34831H11.9853L11.0383 8.03633L11.4 6.92309Z" fill="white"/>
<path d="M11.4 9.07693L11.7617 10.1902L10.8147 9.50215H11.9853L11.0383 10.1902L11.4 9.07693Z" fill="white"/>
<path d="M12.6667 1.53847L13.0284 2.65171L12.0814 1.96369H13.2519L12.3049 2.65171L12.6667 1.53847Z" fill="white"/>
<path d="M12.6667 3.69232L13.0284 4.80556L12.0814 4.11754H13.2519L12.3049 4.80556L12.6667 3.69232Z" fill="white"/>
<path d="M12.6667 5.84616L13.0284 6.9594L12.0814 6.27138H13.2519L12.3049 6.9594L12.6667 5.84616Z" fill="white"/>
<path d="M12.6667 8.00001L13.0284 9.11325L12.0814 8.42523H13.2519L12.3049 9.11325L12.6667 8.00001Z" fill="white"/>
<path d="M13.9333 0.461548L14.295 1.57479L13.3481 0.886768H14.5186L13.5716 1.57479L13.9333 0.461548Z" fill="white"/>
<path d="M13.9333 2.61539L14.295 3.72864L13.3481 3.04061H14.5186L13.5716 3.72864L13.9333 2.61539Z" fill="white"/>
<path d="M13.9333 4.76924L14.295 5.88248L13.3481 5.19446H14.5186L13.5716 5.88248L13.9333 4.76924Z" fill="white"/>
<path d="M13.9333 6.92309L14.295 8.03633L13.3481 7.34831H14.5186L13.5716 8.03633L13.9333 6.92309Z" fill="white"/>
<path d="M13.9333 9.07693L14.295 10.1902L13.3481 9.50215H14.5186L13.5716 10.1902L13.9333 9.07693Z" fill="white"/>
</g>
<defs>
<clipPath id="clip0_18230_194153">
<rect width="32" height="20" fill="white" transform="translate(0 0.00390625)"/>
</clipPath>
</defs>
</svg>