<svg width="26" height="30" viewBox="0 0 26 30" fill="none" xmlns="http://www.w3.org/2000/svg">
<path fill-rule="evenodd" clip-rule="evenodd" d="M18.2531 0V8.9548L25.5029 13.1749V3.70543L18.2531 0ZM0 0V14.0498H23.4976L16.3506 10.1385H7.04414V3.80836L0 0ZM18.2531 26.1439V19.8652H8.84374C8.84374 19.9167 1.59393 15.851 1.59393 15.851L25.5029 15.954V30.0037L18.2531 26.1439ZM0 16.9318V26.0924L7.04414 29.9523V21.1004L0 16.9318Z" fill="#FED600"/>
<path fill-rule="evenodd" clip-rule="evenodd" d="M18.2531 0V8.9548L25.5029 13.1749V3.70543L18.2531 0ZM0 0V14.0498H23.4976L16.3506 10.1385H7.04414V3.80836L0 0Z" fill="#0071EA"/>
</svg>