<svg fill="none" height="24" viewBox="0 0 24 24" width="24" xmlns="http://www.w3.org/2000/svg"><path d="m10.8999 2.09998c-4.59996.5-8.29996 4.2-8.79996 8.70002-.6 5 2.5 9.3 6.9 10.7v-2.3s-.4.1-.9.1c-1.4 0-2-1.2-2.1-1.9-.1-.4-.3-.7-.6-1-.3-.1-.4-.1-.4-.2 0-.2.3-.2.4-.2.6 0 1.1.7 1.3 1 .5.8 1.1 1 1.4 1 .4 0 .7-.1.9-.2.1-.7.4-1.4 1-1.8-2.3-.5-4-1.8-4-4 0-1.1.5-2.20002 1.2-3.00002-.1-.2-.2-.7-.2-1.4 0-.4 0-1 .3-1.6 0 0 1.4 0 2.79996 1.3.5-.2 1.2-.3 1.9-.3s1.4.1 2 .3c1.3-1.3 2.8-1.3 2.8-1.3.2.6.2 1.2.2 1.6 0 .8-.1 1.2-.2 1.4.7.8 1.2 1.80002 1.2 3.00002 0 2.2-1.7 3.5-4 4 .6.5 1 1.4 1 2.3v3.3c4.1-1.3 7-5.1 7-9.5 0-6.00002-5.1-10.70002-11.1-10.00002z" fill="#fff"/></svg>